<svg fill="none" height="16" viewBox="0 0 21 16" width="21" xmlns="http://www.w3.org/2000/svg"><path d="m9.31314 7.01487 4.55696-5.77236 1.9561-.643277 1.5979 1.599577-.3296 2.25709-4.557 5.7724-3.89064 1.2794" fill="#ffff60"/><path d="m8.71627 11.721 3.89063-1.2795c.043-.0141.079-.0495.115-.085l4.5354-5.76528c.0145-.02837.0505-.06382.0365-.10643l.3366-2.23579c.022-.07806.001-.14198-.0415-.19883l-1.598-1.599577c-.071-.071092-.1495-.0925-.2355-.064224l-1.9346.636211c-.0429.01414-.0789.04958-.1149.08503l-4.55696 5.77236c-.08645.09926-.0659.23418.03362.31951s.2355.06422.32196-.03504l4.49948-5.72985 1.7626-.579657 1.4204 1.421847-.3142 2.08673-4.4705 5.67309-3.82617 1.2583c-.12898.0424-.18693.1559-.14488.2837.04204.1279.15605.1848.28502.1424z" fill="#3d3dff"/><path d="m11.2692 6.37162-3.22436-3.21339-1.93459.63621-2.29272 2.87906-.32964 2.25709 3.2029 3.22041 3.89071-1.2794" fill="#ffff60"/><path d="m6.76086 12.3641 3.89064-1.2795c.129-.0424.1869-.1559.1449-.2837-.042-.1279-.1561-.1848-.285-.1424l-3.76172 1.237-3.02534-3.04268.3142-2.08673 2.20627-2.77979 1.74113-.57259 3.11786 3.10675c.078.0924.221.0926.3075-.00667.0934-.07796.0944-.21994-.0052-.30527l-3.20284-3.22046c-.06401-.04978-.14251-.07119-.2285-.04291l-1.93458.63621c-.04299.01413-.07897.04958-.11496.08502l-2.29272 2.87906c-.01449.02838-.05047.06383-.03646.10644l-.33664 2.23578c-.00047.071.02055.13492.06306.19177l3.20289 3.22047c.06402.0498.17102.0854.23551.0642z" fill="#3d3dff"/><path d="m5.82908 7.93393c-.36246-.24055-.32832-.92074.07627-1.51925.40458-.59851 1.02639-.88869 1.38886-.64814.36246.24054.32831.92074-.07627 1.51924-.40458.59851-1.0264.8887-1.38886.64815z" fill="#ff7698"/><path d="m6.48134 8.18221c.62336-.205 1.20005-.91411 1.29777-1.63099.05985-.39747-.05226-.73839-.27981-.92329-.19905-.17067-.49903-.21368-.82146-.10765-.62337.205-1.20005.91411-1.29778 1.631-.05985.39747.05227.73839.27982.92329.19904.17066.49903.21368.82146.10764zm.32963-2.25709c.10748-.03534.26496-.06352.39298.03605.10653.10664.16259.2771.12518.52552-.08229.54653-.53653 1.12092-.98794 1.26937-.10747.03535-.26495.06352-.39297-.03605-.10653-.10663-.16259-.27709-.12518-.52551.08929-.52522.53653-1.12093.98793-1.26938z" fill="#3d3dff"/><path d="m13.6093 5.38248c-.3625-.24055-.3284-.92074.0762-1.51925s1.0264-.8887 1.3889-.64815c.3624.24055.3283.92074-.0763 1.51925s-1.0264.8887-1.3888.64815z" fill="#ffff60"/><path d="m14.2412 5.63034c.6233-.20501 1.2-.91412 1.2977-1.631.0599-.39747-.0522-.73839-.2798-.92329-.199-.17067-.499-.21368-.8214-.10765-.6234.205-1.2001.91411-1.2978 1.631-.0599.39747.0523.73839.2798.92329.2205.16359.499.21368.8215.10765zm.3296-2.25709c.1075-.03535.265-.06353.393.03604.1065.10664.1626.2771.1252.52552-.0823.54653-.5366 1.12093-.988 1.26937-.1075.03535-.2649.06352-.3929-.03604-.1066-.10664-.1626-.2771-.1252-.52552.0893-.52522.5365-1.12093.9879-1.26937z" fill="#3d3dff"/><path d="m9.04657 9.46374 1.93463-.63621c.1289-.04241.1869-.15592.1448-.28377-.042-.12784-.156-.1848-.285-.14238l-1.93457.63621c-.12898.04241-.18693.15592-.14488.28376.04204.12785.15605.1848.28502.14239z" fill="#3d3dff"/><path d="m6.22517 14.4292 8.03923-2.6438c.4729-.1555.7122-.6592.5651-1.1067l-.0841-.2557c-.1542-.46873-.6602-.70372-1.1116-.55527l-8.01779 2.63677c-.4729.1555-.71219.6592-.56504 1.1067l.08409.2556c.12566.4546.6387.7109 1.09011.5624z" fill="#05f293"/><path d="m6.29524 14.6423 8.03926-2.6438c.5804-.1909.8991-.8151.7099-1.3905l-.084-.2556c-.1892-.57535-.8163-.88859-1.3967-.69773l-8.01776 2.63673c-.58038.1909-.89911.8152-.70992 1.3905l.08409.2556c.1677.5824.79475.8957 1.37513.7048zm7.40866-4.5615c.3439-.11308.7144.072.8265.4129l.0841.2557c.1121.3409-.0762.7098-.4201.8229l-8.01781 2.6368c-.34393.1131-.71446-.072-.82657-.4129l-.08409-.2557c-.11212-.3409.07623-.7098.42015-.8229z" fill="#3d3dff"/><path d="m7.37856 7.65106 2.62234-5.13615 1.9346-.63621 2.5652 1.28147.6377 1.93899-2.6009 5.12904-3.89064 1.2795" fill="#ffff60"/><path d="m8.71694 11.7208 3.89066-1.2795c.0645-.0212.1005-.0566.1294-.1134l2.6009-5.12906c.029-.05676.0365-.10644.0154-.17036l-.6306-1.91768c-.021-.06392-.0565-.09947-.1135-.12795l-2.5653-1.28146c-.064-.04979-.114-.05696-.1785-.03575l-1.93455.63621c-.06449.02121-.10047.05665-.12945.1134l-2.62236 5.13615c-.05795.11351-.01591.24136.0981.29831s.24299.01454.30094-.09897l2.57892-5.05102 1.7626-.57965 2.4227 1.21027.5746 1.74722-2.5354 4.96584-3.80471 1.2513c-.12897.0424-.18692.1559-.14488.2837.04205.1279.15606.1848.28503.1424z" fill="#3d3dff"/><path d="m9.31314 7.01487-5.15897-2.57718-1.93458.63621-1.303937 2.55389.637657 1.93898 5.13748 2.58423 3.89061-1.2795" fill="#ffff60"/><path d="m6.76086 12.3641 3.89064-1.2795c.129-.0424.1869-.1559.1449-.2837-.042-.1279-.156-.1848-.285-.1424l-3.80471 1.2512-4.98795-2.49177-.57459-1.74721 1.23149-2.41201 1.76262-.57965 5.07347 2.53445c.11401.05696.24298.01454.30093-.09896.05796-.11351.01591-.24135-.0981-.29831l-5.15897-2.57717c-.03551-.03555-.107-.03565-.17149-.01444l-1.93458.63621c-.06449.02121-.10047.05665-.12945.1134l-1.303936 2.55389c-.028977.05675-.036458.10644-.015437.17036l.630653 1.91768c.02102.06392.05653.09947.11353.12794l5.14449 2.60559c.057.0284.1285.0285.17149.0144z" fill="#3d3dff"/><path d="m4.45518 8.61243c-.53422.17569-1.10847-.11118-1.28261-.64073-.17415-.52956.11774-1.10126.65196-1.27695.53423-.17568 1.10847.11118 1.28262.64074.17415.52955-.11775 1.10126-.65197 1.27694z" fill="#ff7698"/><path d="m4.52525 8.82553c.64486-.21207 1.00707-.92149.79685-1.56071-.21021-.63923-.90829-1.02357-1.57465-.80443-.66635.21914-1.00706.92148-.79685 1.56071.21022.63922.92979 1.0165 1.57465.80443zm-.63765-1.93899c.40841-.13431.86445.09351.99759.49835s-.09868.85887-.50709.99318-.86445-.09351-.99759-.49835c-.13314-.40485.09867-.85887.50709-.99318z" fill="#3d3dff"/><path d="m12.2365 6.05347c-.5342.17569-1.1085-.11118-1.2826-.64073-.1742-.52956.1177-1.10126.652-1.27695.5342-.17568 1.1084.11118 1.2826.64074.1741.52955-.1178 1.10126-.652 1.27694z" fill="#ffff60"/><g fill="#3d3dff"><path d="m12.3066 6.26657c.6448-.21207 1.0071-.92149.7968-1.56071-.2102-.63923-.9298-1.0165-1.5746-.80443-.6449.21207-1.0071.92148-.7969 1.56071.2103.63922.9083 1.02356 1.5747.80443zm-.6377-1.93899c.4084-.13431.8645.09351.9976.49835.1332.40484-.0987.85887-.5071.99318s-.8644-.09351-.9976-.49835c-.1331-.40485.0772-.8518.5071-.99318z"/><path d="m8.07928 9.78185 1.93462-.6362c.1289-.04242.1869-.15593.1448-.28377-.042-.12785-.156-.1848-.28498-.14239l-1.93458.63621c-.12897.04242-.18693.15592-.14488.28377.04204.12784.15605.1848.28502.14238z"/><path d="m13.2383 12.359c.1289-.0424.1869-.1559.1448-.2838l-.6306-1.9177c-.0421-.1278-.1561-.18477-.285-.1424-.129.0425-.187.156-.1449.2838l.6306 1.9177c.0421.1278.1561.1848.2851.1424z"/><path d="m11.2822 13.0023c.1289-.0424.1869-.1559.1449-.2838l-.6307-1.9177c-.042-.1278-.156-.1848-.285-.1423-.129.0424-.1869.1559-.1449.2837l.6306 1.9177c.0421.1278.1776.1777.2851.1424z"/><path d="m9.34758 13.6385c.12898-.0424.18693-.1559.14489-.2837l-.63065-1.9177c-.04205-.1279-.15606-.1848-.28503-.1424s-.18692.1559-.14488.2838l.63065 1.9176c.04204.1279.15605.1848.28502.1424z"/><path d="m7.39151 14.2818c.12897-.0424.18692-.156.14488-.2838l-.63065-1.9177c-.04204-.1278-.15606-.1848-.28503-.1424-.12897.0425-.18692.156-.14488.2838l.63065 1.9177c.04204.1278.17755.1777.28503.1424z"/></g></svg>